<svg version="1.1" xmlns="http://www.w3.org/2000/svg" style="display: block;" viewBox="0 0 2048 1071" width="1408" height="736" preserveAspectRatio="none">
<path transform="translate(0,0)" fill="rgb(255,255,255)" d="M 0 0 L 2048 0 L 2048 1071 L 0 1071 L 0 0 z"/>
<path transform="translate(0,0)" fill="rgb(28,37,52)" d="M 893.142 283.277 C 897.315 282.976 903.154 282.981 907.372 282.971 L 1133.34 282.882 L 1197.63 282.848 C 1219.63 282.844 1241.31 279.776 1258.15 296.847 C 1275.36 314.303 1273.07 333.276 1273.09 355.496 L 1273.07 406.878 L 1273.09 587.36 C 1273.08 608.094 1274.56 625.275 1258.33 641.504 C 1238.97 660.858 1208.71 656.086 1183 656.072 L 1094.51 655.961 C 1079.43 668.448 1060.01 687.163 1045.05 700.683 C 1037.66 707.682 1030.68 714.838 1022.13 720.468 C 1013.65 726.052 1003.6 723.156 1003.24 712.243 C 1002.63 693.668 1003.09 674.735 1003.13 656.079 L 932.581 656.192 C 921.27 656.228 898.956 657.011 888.473 654.656 C 879.185 652.661 870.655 648.068 863.877 641.412 C 850.904 628.419 849.835 614.381 849.948 597.486 C 867.237 607.186 890.285 624.01 907.238 629.732 C 933.915 638.736 949.585 610.291 945.99 587.333 C 945.13 581.837 945.958 567.526 945.94 561.841 L 945.851 492.725 L 945.872 399.818 C 945.871 382.503 946.087 365.183 945.45 347.916 C 945.95 330.118 924.16 312.88 907.229 320.847 C 888.366 329.723 867.824 344.075 849.833 355.208 C 849.697 319.857 850.708 291.35 893.142 283.277 z"/>
<path transform="translate(0,0)" fill="rgb(253,145,6)" d="M 1131.99 328.064 C 1135.48 327.925 1139.86 327.711 1143.01 329.294 C 1159.7 337.679 1176.14 372.859 1182.3 388.918 C 1202.7 442.359 1201.07 501.707 1177.78 553.952 C 1170.99 569.165 1156.01 599.692 1139.91 605.828 C 1131.44 606.03 1123.23 602.976 1119.14 595.086 C 1112.89 583.029 1126.74 568.411 1132.99 558.115 C 1139.87 546.773 1145.41 534.672 1149.51 522.054 C 1164.6 475.504 1159.68 414.393 1131.09 371.499 C 1120.2 355.151 1105.81 340.027 1131.99 328.064 z"/>
<path transform="translate(0,0)" fill="rgb(253,145,6)" d="M 1074.14 378.108 C 1097.33 377.009 1110.9 412.225 1116.01 430.872 C 1125.42 465.482 1120.52 502.422 1102.41 533.38 C 1096.44 543.807 1091.45 551.509 1079.72 554.686 C 1076.79 554.535 1073.75 554.114 1070.98 553.103 C 1066.16 551.387 1062.24 547.814 1060.07 543.182 C 1056.04 534.419 1059.58 529.545 1064.25 522.14 C 1069.17 514.358 1073.68 507.405 1076.98 498.79 C 1085.99 475.29 1084.67 449.079 1073.35 426.603 C 1064.5 409.097 1045.4 389.949 1074.14 378.108 z"/>
<path transform="translate(0,0)" fill="rgb(253,145,6)" d="M 1014.9 425.08 C 1052.46 420.053 1058.88 492.573 1024.86 508.698 C 1002.26 510.968 996.454 494.63 1005.91 476.61 C 1017.14 455.199 984.077 440.959 1014.9 425.08 z"/>
<path transform="translate(0,0)" fill="rgb(28,37,52)" d="M 912.573 335.881 C 923.94 335.152 929.192 341.267 929.135 352.398 C 928.846 408.753 929.269 465.117 929.022 521.472 C 928.977 538.592 929.055 555.711 929.254 572.829 C 929.329 582.264 931.427 604.369 925.016 610.832 C 922.149 613.778 918.025 615.14 913.967 614.481 C 908.454 613.605 895.156 605.266 889.996 602.204 L 836.465 570.218 C 826.022 563.983 810.213 552.389 798.25 552.533 C 780.362 552.688 761.656 553.506 743.879 552.421 C 720.127 550.973 717.017 534.505 716.918 515.307 L 716.894 455.265 C 716.915 438.846 712.858 405.224 736.849 402.144 C 758.358 399.383 783.774 400.841 805.913 400.877 C 841.58 380.486 877.161 355.86 912.573 335.881 z"/>
<path transform="translate(0,0)" fill="rgb(255,255,255)" d="M 793.496 450.385 C 807.928 448.665 821.065 458.855 822.988 473.261 C 824.91 487.667 814.906 500.946 800.529 503.072 C 791.047 504.474 781.544 500.662 775.66 493.095 C 769.775 485.529 768.421 475.38 772.115 466.535 C 775.808 457.69 783.978 451.519 793.496 450.385 z"/>
<path transform="translate(0,0)" fill="rgb(253,145,6)" d="M 912.054 734.998 C 922.601 734.142 932.694 742.283 942.467 746.375 C 950.329 749.666 956.926 752.495 965.167 755.002 C 986.461 761.452 1008.72 764.129 1030.94 762.912 C 1055.18 761.694 1077.86 756.109 1099.98 746.16 C 1106.4 743.271 1119.36 734.254 1125.54 734.881 C 1129.62 735.323 1133.31 737.494 1135.68 740.843 C 1140.75 748.036 1136.08 754.786 1130.06 759.123 C 1066.77 794.86 994.904 798.183 928.385 768.285 C 914.173 761.898 891.25 751.062 912.054 734.998 z"/>
</svg>